<svg xmlns="http://www.w3.org/2000/svg" viewBox="0 0 200 200">
      <style>
        .st0{fill:#F05A28;}
        .st1{fill:#F05A28;}
      </style>
      <path class="st0" d="M100,20c44.1,0,80,35.9,80,80s-35.9,80-80,80s-80-35.9-80-80S55.9,20,100,20 M100,10C50.3,10,10,50.3,10,100
        s40.3,90,90,90s90-40.3,90-90S149.7,10,100,10L100,10z"/>
      <path class="st1" d="M125.9,65.4c-3.4,0-6.1,2.7-6.1,6.1c0,3.4,2.7,6.1,6.1,6.1c3.4,0,6.1-2.7,6.1-6.1
        C132,68.1,129.3,65.4,125.9,65.4z M82.5,133.6c0,0,5.3,6.5,13.3,6.5c8,0,14-5.2,14-15.6c0-10.2-7.1-15.6-14-15.6
        c-6.9,0-13.3,6.5-13.3,6.5V133.6z M82.5,99.7c0,0,5.3-6.5,13.3-6.5c7.9,0,14,5.4,14,15.6c0,10.4-6,15.6-14,15.6
        c-8,0-13.3-6.5-13.3-6.5V99.7z M82.5,88.7V65.4h-9.2v73.2h9.2v-6.5c0,0,5.7,7.8,16.3,7.8c11.3,0,22.1-8.7,22.1-26.2
        c0-17.3-10.8-26.2-22.1-26.2C88.2,87.5,82.5,88.7,82.5,88.7z"/>
    </svg>