<svg xmlns="http://www.w3.org/2000/svg" viewBox="0 0 200 200">
      <style>
        .st0{fill:#1287B1;}
        .st1{fill:#FFFFFF;}
      </style>
      <circle cx="100" cy="100" r="80" class="st0"/>
      <path class="st1" d="M100,50c-5.5,0-10,4.5-10,10s4.5,10,10,10s10-4.5,10-10S105.5,50,100,50z"/>
      <path class="st1" d="M70,80c-5.5,0-10,4.5-10,10s4.5,10,10,10s10-4.5,10-10S75.5,80,70,80z"/>
      <path class="st1" d="M130,80c-5.5,0-10,4.5-10,10s4.5,10,10,10s10-4.5,10-10S135.5,80,130,80z"/>
      <path class="st1" d="M70,120c-5.5,0-10,4.5-10,10s4.5,10,10,10s10-4.5,10-10S75.5,120,70,120z"/>
      <path class="st1" d="M130,120c-5.5,0-10,4.5-10,10s4.5,10,10,10s10-4.5,10-10S135.5,120,130,120z"/>
      <path class="st1" d="M100,130c-5.5,0-10,4.5-10,10s4.5,10,10,10s10-4.5,10-10S105.5,130,100,130z"/>
      <path class="st1" d="M100,70l-30,20 M100,70l30,20 M70,100v30 M130,100v30 M80,140h40"/>
    </svg>