<svg xmlns="http://www.w3.org/2000/svg" viewBox="0 0 200 200">
      <style>
        .st0{fill:#4285F4;}
        .st1{fill:#FFFFFF;}
      </style>
      <path class="st0" d="M160,110c0-5.5-4.5-10-10-10h-10c0-22.1-17.9-40-40-40c-18.8,0-34.5,12.9-38.9,30.4C50.2,93.8,42,104.1,42,116
        c0,13.8,11.2,25,25,25h73c11,0,20-9,20-20C160,118.9,160,111.1,160,110z"/>
      <path class="st1" d="M140,110h-10V90c0-16.6-13.4-30-30-30c-14.1,0-25.9,9.7-29.2,22.8C63.2,85.9,57,94.5,57,104c0,9.9,8.1,18,18,18h65
        c5.5,0,10-4.5,10-10S145.5,110,140,110z"/>
    </svg>