<svg xmlns="http://www.w3.org/2000/svg" viewBox="0 0 48 48" role="img" aria-label="Google Chrome">
  <path fill="#EA4335" d="M24 4a20 20 0 0 0-17.32 10l8.66 15H24a9 9 0 0 1 0-18 8.9 8.9 0 0 1 4.5 1.22L36.66 4.9A19.94 19.94 0 0 0 24 4z"/>
  <path fill="#FBBC05" d="M6.68 14A20 20 0 0 0 24 44l8.66-15H24a9 9 0 0 1-7.79-4.5L6.68 14z"/>
  <path fill="#34A853" d="M41.32 14H24l8.66 15A9 9 0 0 1 24 33h.01l-8.67 15A20 20 0 0 0 44 24a19.94 19.94 0 0 0-2.68-10z"/>
  <circle cx="24" cy="24" r="9" fill="#fff"/>
  <circle cx="24" cy="24" r="6.75" fill="#4285F4"/>
</svg>
