<svg xmlns="http://www.w3.org/2000/svg" viewBox="0 0 200 200">
      <style>
        .st0{fill:#F89939;}
        .st1{fill:#3499CD;}
      </style>
      <path class="st0" d="M100,20c-44.1,0-80,35.9-80,80s35.9,80,80,80s80-35.9,80-80S144.1,20,100,20z M100,160
        c-33.1,0-60-26.9-60-60s26.9-60,60-60s60,26.9,60,60S133.1,160,100,160z"/>
      <path class="st1" d="M100,40c-33.1,0-60,26.9-60,60s26.9,60,60,60s60-26.9,60-60S133.1,40,100,40z M100,140
        c-22.1,0-40-17.9-40-40s17.9-40,40-40s40,17.9,40,40S122.1,140,100,140z"/>
      <path class="st0" d="M100,60c-22.1,0-40,17.9-40,40s17.9,40,40,40s40-17.9,40-40S122.1,60,100,60z M100,120
        c-11,0-20-9-20-20s9-20,20-20s20,9,20,20S111,120,100,120z"/>
      <circle class="st1" cx="100" cy="100" r="20"/>
    </svg>