<svg width="104" height="44" viewBox="0 0 104 44" fill="none" xmlns="http://www.w3.org/2000/svg">
<g clip-path="url(#clip0)">
<g clip-path="url(#clip1)">
<path d="M63.6412 23.8627C63.6412 23.8627 63.4317 23.0936 63.4317 22.5235V13.6053H67.0034V30.783L55.5683 21.314C54.9564 20.7941 54.5944 20.2136 54.5944 20.2136C54.5944 20.2136 54.7757 20.8537 54.7757 21.4075L54.7725 30.3953H51.1987V13.285L62.5288 22.5638C63.1365 23.0784 63.6412 23.8627 63.6412 23.8627Z" fill="#8691A3"/>
<path d="M95.9814 13.6068C101.641 13.6068 103.091 15.8389 103.091 19.0469C103.091 21.372 101.379 23.65 97.9256 23.9196L97.5473 23.9379C97.5473 23.9379 97.8812 23.9969 98.2302 24.3329L104.497 30.3948H99.6545L90.906 21.512H95.2619C99.1639 21.512 99.2772 19.456 99.3039 18.9377C99.377 17.6033 98.9502 16.5364 95.9746 16.5364H90.9938V30.3948H87.282V13.6068H95.9814Z" fill="#8691A3"/>
<path d="M68.61 22.2403C68.61 15.2072 74.4968 13.3591 79.4453 13.3591C81.4265 13.3591 83.181 13.5368 85.0275 13.9281L85.0327 17.4946C83.971 17.168 81.8388 16.4512 79.4458 16.4512C74.7544 16.4512 72.4764 18.2736 72.4764 22.2398C72.4764 25.4886 74.932 27.5582 79.4458 27.5582C81.8388 27.5582 84.2349 26.9887 85.3953 26.5607L85.3885 30.0206C83.5441 30.4099 81.427 30.6502 79.4458 30.6502C74.1603 30.6507 68.61 28.0817 68.61 22.2403Z" fill="#8691A3"/>
<path d="M28.4163 14.0384L31.8997 17.3191C31.8046 17.3614 31.6949 17.4136 31.5659 17.4784C31.3642 17.5834 31.1238 17.724 30.836 17.9236C30.2617 18.3181 29.5135 18.9482 28.5564 19.9811L21.7484 27.1857C20.5817 28.4187 19.3962 29.3958 18.2937 29.9125L14.8082 26.6308C14.9033 26.5864 15.013 26.5373 15.14 26.4693C15.3417 26.3664 15.582 26.2238 15.8699 26.0273C16.4426 25.6292 17.1928 25.0027 18.1511 23.9682L24.9575 16.7757C26.1247 15.5442 27.3123 14.5551 28.4163 14.0384Z" fill="#8691A3"/>
<path d="M14.9321 31.4538C16.4718 31.4538 17.8872 31.1487 18.8476 30.6507C19.2865 30.4219 19.9129 30.0279 20.4516 29.6079C20.9882 29.1894 21.7489 28.5373 22.3921 27.8534L29.2069 20.6692C30.9258 18.8588 31.9588 18.2997 32.5858 18.0798L36.0812 21.3908C35.3518 22.1708 26.6519 31.4366 26.6519 31.4366C26.0589 32.0771 25.434 32.6952 25.0092 33.0845C24.6012 33.4607 23.9031 34.0213 23.5426 34.2851C21.4966 35.7842 18.7635 37 15.0831 37C6.7437 37 0 30.2124 0 22.3965C0 12.7008 7.5755 7.07469 14.4749 7.07469C16.5899 7.01199 18.2869 7.3678 19.6287 7.82341C20.8685 8.24505 21.8048 8.755 22.4841 9.10193C21.681 9.61658 20.9041 10.3183 19.6235 11.6861L18.2243 13.1883C17.9024 13.0644 16.475 12.5665 14.6426 12.6224C10.2156 12.753 5.37375 16.3415 5.54826 22.2283C5.71075 27.7327 10.248 31.4538 14.9321 31.4538Z" fill="#8691A3"/>
<path d="M27.817 13.3492C27.3766 13.5796 26.7517 13.9726 26.2099 14.3926C25.6749 14.8111 24.9146 15.4632 24.2694 16.1456L17.4562 23.3313C15.7372 25.1417 14.7037 25.6987 14.0773 25.9192L10.5818 22.6113C11.3133 21.8291 20.0116 12.565 20.0116 12.565C20.6062 11.9244 21.2296 11.3063 21.6543 10.9155C22.0624 10.5393 22.7604 9.98077 23.1241 9.71483C25.1665 8.21582 27.9032 7 31.5836 7C39.9225 7 46.663 13.7881 46.663 21.6019C46.663 31.3007 39.0891 36.9237 32.1881 36.9237C30.0747 36.988 28.3761 36.6322 27.0364 36.1729C25.7935 35.7528 24.8535 35.2398 24.1758 34.8944C25.0244 34.3217 25.7506 33.6937 27.0411 32.3149L28.4383 30.8127C28.7601 30.9345 30.1881 31.4329 32.022 31.3786C36.4474 31.2464 41.2909 27.6543 41.1164 21.7691C40.9523 16.2673 36.4119 12.5446 31.7304 12.5446C30.1881 12.5446 28.7789 12.8513 27.817 13.3492Z" fill="#8691A3"/>
</g>
</g>
<defs>
<clipPath id="clip0">
<rect width="104" height="44" fill="white"/>
</clipPath>
<clipPath id="clip1">
<rect width="104.497" height="30" fill="white" transform="translate(0 7)"/>
</clipPath>
</defs>
</svg>
