<svg width="96" height="96" viewBox="0 0 96 96" fill="none" xmlns="http://www.w3.org/2000/svg">
  <rect width="96" height="96" rx="48" fill="#D1FAE5"/>
  <circle cx="48" cy="42" r="21" fill="#F3C49F"/>
  <path d="M27 40C28 24 37 17 49 17C62 17 70 26 70 40C63 34 57 31 48 31C39 31 33 34 27 40Z" fill="#334155"/>
  <path d="M25 88C27 68 36 59 48 59C60 59 69 68 71 88H25Z" fill="#0F766E"/>
  <circle cx="40" cy="43" r="2.5" fill="#334155"/>
  <circle cx="56" cy="43" r="2.5" fill="#334155"/>
  <path d="M42 52C46 55 50 55 54 52" stroke="#A1624A" stroke-width="2.5" stroke-linecap="round"/>
</svg>
